<?xml version="1.0"?><svg version="1.2" baseProfile="tiny-ps" viewBox="0 0 300 300" xmlns="http://www.w3.org/2000/svg" xmlns:xlink="http://www.w3.org/1999/xlink"><title>Tagtics</title><g><g fill="#c6ebf2" transform="matrix(.1 0 0 -.1 0 300)"><path d="M0 1500V0h3000v3000H0V1500z"/></g><g fill="#46e0fb" transform="matrix(.1 0 0 -.1 0 300)"><path d="M0 1500V0h3000v3000H0V1500zm1415 735c28-4 61-9 73-12l24-6-10-6-11-6 17-39 17-38 29 25 28 25-18 12-19 12 18-6c10-3 23-6 29-6h10l-6-35-7-35h13l13-1-19-14-20-15h53l26 25c26 27 33 41 13 29l-11-7 8 13 8 13 14-19 14-19 13 3 14 2-2-17-1-17 25-6 25-6-30-15-30-14-10-23c-11-25-25-29-25-8v14l-21 5-21 6 6-15 6-15-44 38-44 38 9 18 10 17h-21v-32l-12 6c-7 2-37 12-67 22l-55 16-56-5-56-5-52-26-53-27-39-41c-22-22-40-44-40-49s-5-9-12-9h-11l15 18c9 9 25 38 36 65 12 26 24 47 27 47s1-9-5-19c-15-30-12-33 15-15l25 16-6 9-5 9h22l-6 11-7 10-13-5-13-5-6 15-5 14-25-11-25-12-3-41-3-41-5 47c-3 25-4 45-2 43 2-1 29 13 60 32 31 18 76 39 100 45l42 10v28l23-4c12-3 45-8 72-11zm225-105c0-5-5-10-11-10h-10l6 10c3 6 8 10 11 10 2 0 4-4 4-10zm-193-157 18-14-15 6-15 6 18-14 18-15-10-6c-6-4-42-6-81-5l-72 2 13 8c7 4 16 6 20 4 3-3 19 14 35 36l28 41 12-17c7-9 21-23 31-32zm-77 12-12-15h-43l30 19c34 21 44 19 25-4zm506-1076 6-11-26 17c-14 10-26 19-26 22 0 7 39-17 46-28zm-56 17c0-2-7-7-16-10l-15-6 6 10c6 10 25 14 25 6zM527 843l-5-18v60l5-12c2-7 2-21 0-30z"/></g><g fill="#e78b9e" transform="matrix(.1 0 0 -.1 0 300)"><path d="M0 1500V0h3000v3000H0V1500zm1840 920c0-5-4-10-10-10-5 0-10 5-10 10 0 6 5 10 10 10 6 0 10-4 10-10zm-40-120v-30h-70v60h70v-30zm160 0v-30h-60v60h60v-30zm-547-65c32-4 84-15 114-26 71-24 70-24 77 8l7 26 44-49c24-27 44-56 45-64v-14l51 49c29 28 48 44 44 36-5-8-16-51-25-97l-16-82 23-58 22-59v-42l1-43-17-1c-10-1-20-1-23-1s-6-8-6-19v-19l13 4 13 5-3-12-2-12 11 2 12 2 5-24 4-25h-8c-5 0-9-9-9-19 0-11-4-22-9-26l-10-5-5 9c-3 5-22 12-42 15l-36 7 8 17c4 9 9 47 12 84l4 67-17 56-18 56-44 49-44 49-57 28-57 28h-160l-53-28-53-28-39-41c-22-22-40-44-40-49s-5-9-12-9h-11l15 18c9 9 25 38 36 65 12 26 24 47 27 47s1-9-5-19c-15-30-12-33 15-15l25 16-6 9-5 9h22l-6 11-7 10-13-5-13-5-6 15-5 14-25-11-25-12-3-41-3-41-5 47c-3 25-4 45-2 43 2-1 29 13 60 32 31 18 76 39 100 45l42 10v29l18-5c9-2 43-7 75-11zm292-5 6-10h-10c-6 0-11 5-11 10 0 6 2 10 4 10 3 0 8-4 11-10zm405-205c0-3-21-69-46-147l-47-142-22 27-23 26-6-7-7-6 5 14c2 8 21 66 41 128l37 112h34c19 0 34-2 34-5zm-675-37-6 12h8c4-1 32-14 62-29l54-28-34-5c-19-3-74-6-123-6h-90l14 8c8 5 17 7 21 5 3-3 19 14 35 36l28 41 19-24c10-13 16-17 12-10zm-65-3-12-15h-43l30 19c34 21 44 19 25-4zm950-112 100-97v-37l-57-60-58-59-11 4c-6 2-37-2-69-9l-58-14 63 64c35 35 66 62 70 60 3-2 7 6 8 18l1 22-76 77-77 77 12 26 12 25h41l99-97zm-739 12 20-46-10-27-9-27-1 19-1 18-20-5-20-5v9c0 5 10 10 23 10l22 2-23 4-24 5 6 15c3 8 9 27 12 41l5 27-18-38-18-38-19 31-18 32 13 9c8 5 24 9 37 9h23l20-45zm-107 26 5-8-24 5c-14 2-25 6-25 8 0 8 39 4 44-5zm166-61c0-5-5-10-11-10h-10l6 10c3 6 8 10 11 10 2 0 4-4 4-10zm-69-93-12-12 7 18c3 10 9 15 12 12s0-11-7-18zm383-21c-3-15-8-25-11-23-2 3-1 17 3 31 3 15 8 25 11 23 2-3 1-17-3-31zm310-155c-15-17-29-29-32-26-2 2 8 18 24 34 37 39 44 32 8-8zm-214-359c0-13-4-32-10-42l-10-18-87 90c-49 49-89 90-90 92-2 1 4 3 12 3s12-3 10-7c-2-3 23-16 57-28l61-21-63 64-64 65-6-10-6-10-17 37-16 37 114-114 115-115v-23zm-180 153c0-8-2-15-4-15s-6 7-10 15l-5 15h9c6 0 10-7 10-15zm-12-451 22-15v-16c0-21-29-53-47-53-15 0-53 35-53 50 0 12 37 50 48 50 4 0 18-7 30-16zm-998-73v-29l-22-6c-13-3-42-6-65-6h-43V490h-80v325l-32 1c-18 1-48 2-65 2l-33 2v60h340v-29zm802-18 3-38 38-3 37-3v-59h-80l-1-77c-1-43-4-66-6-52l-4 25-29-4-28-4 4-41 4-40 17-21 17-21-24 23-25 22-1 93-1 92-21 3-22 3v58l23 3 22 3 2 30c0 17 2 33 2 38 1 4 16 7 35 7h35l3-37zm-588-48c17-8 38-25 46-37l14-23 4-117 4-118h-71l-6 11-7 10-16-6-16-6 20 22 19 21 3-21 3-21h59v122l-20 5c-11 3-20 10-20 17v11l-10-15c-5-8-10-26-10-39v-24l-17-19c-9-10-23-18-32-18l-16 1 20 11c25 14 35 28 35 51v17h-96l-12-12c-7-7-12-20-12-30v-17l18-10 17-10-11-1c-6 0-17 7-24 15l-12 15 4 25 5 25h-18c-11 0-22 1-26 3-4 1-10-11-14-26l-8-29 9-23 9-24 28-15c15-8 23-15 17-16-6 0-23 9-37 20l-25 20-6 26-7 27 11 26c6 15 20 33 33 40l22 14 67 5 68 5v11c0 7-6 20-13 30l-13 18-50-4c-27-3-56-8-65-12l-15-7-13 27c-6 15-9 29-6 33 14 14 73 30 113 30l44 1 32-15zm318-1 31-16 6 10c3 5 21 11 39 14l32 5-1-116-2-116-7 35c-4 19-8 31-9 27l-1-8-19 11-20 10-6-20c-3-11-18-29-32-40l-26-20h-64l-25 20c-14 10-40 22-57 25l-32 5 12-22c6-13 21-34 33-47l21-24-21 13c-12 8-30 27-40 44l-18 31v92l20 34 20 34 34 17 35 18h66l31-16zm751 5c28-14 67-50 67-60 0-5-13-15-29-23l-29-15-17 19-18 20h-68l-24-25-25-24v-68l21-29 21-29-31 32-30 32-25 7-26 6 12-33c6-19 22-47 37-63l26-29-22 12-21 11-21 43c-32 66-25 125 22 176 43 46 130 66 180 40zm307 2 25-7 3-19c1-11-1-25-6-32l-7-11-47 10-48 11-25-11-25-12v-29l38-10c20-5 49-12 63-15 15-3 36-14 47-23l21-18 6-30 5-30-14 31c-8 17-22 36-30 43l-15 13-30-13-29-13 21-11 22-11 3-19 4-19-18-13-18-13-40 1-41 2 30 4c17 2 40 6 53 8l22 5v38l-14 5c-7 3-34 9-60 12l-46 7-25 20-25 19v35c0 20 5 44 11 55l11 21 31 13 32 14h45c25-1 56-4 70-8zm-580-151V490h-80v300h80V640zm321-60c10-6 19-15 19-20 0-11-51-60-63-60-4 0 7 13 25 29l32 28-23 12-22 12-17-13-17-13 14 18c16 20 25 21 52 7zm119-27c3-3-7-2-21 2l-26 6-7-17c-4-9-5-18-4-19 2-1 12-7 23-13s15-12 9-12c-5 0-18 6-28 13l-17 13 12 26 12 27 21-11c12-6 23-13 26-15zm-599 2 21 7 9-13c5-8 9-18 9-24-1-5-5-2-11 8l-10 17-23-6-22-5-15 18-14 18 17-13 17-14 22 7zm-301-25c-36-28-46-24-13 4 15 13 30 22 33 19 3-2-6-13-20-23zm667 24c-3-3-12-4-19-1l-13 5 19 1c11 1 17-2 13-5zm40 0c-3-3-12-4-19-1l-13 5 19 1c11 1 17-2 13-5zm353-29c-13-14-27-25-31-25s4 13 19 28 29 26 31 25c3-2-6-14-19-28zm-1122-22c-10-2-26-2-35 0l-18 5h70l-17-5zm149-25-5-13-1 19c-1 11 2 17 5 13 3-3 4-12 1-19zm836 15c-7-2-19-2-25 0l-13 5h50l-12-5zm-1034-54 26-7-20-1c-11 0-31 6-45 13l-24 14-14-17-13-16 11 23 11 22 21-11c12-7 33-15 47-20zm102 11-23-20-22 1-21 1 32 9c18 5 35 14 38 19 3 6 9 10 13 10 4-1-4-10-17-20zm80-13-12-12 7 18c3 10 9 15 12 12s0-11-7-18zm-118-64c-13-2-35-2-50 0l-28 4h100l-22-4zm391 1936-6-11 9-9 10-10 12 14 12 15-15 5-15 6-7-10zm161 1c-8-14 3-30 21-30h14v40h-14c-8 0-18-4-21-10zm320-650-29-30 25 1c13 0 33 4 44 9l20 8-18 7-18 8 5 13c8 20 3 18-29-16zM666 614c-3-9-6-38-6-65v-49h60v130h-48l-6-16zm619 91-25-24v-58l25-27 24-26h69l26 31c30 35 32 49 11 88-16 32-33 41-76 41h-30l-24-25zm521-109c-3-16-6-44-6-62v-34h60v128l-24-2-24-1-6-29z"/></g><g fill="#327ed4" transform="matrix(.1 0 0 -.1 0 300)"><path d="M0 1500V0h3000v3000H0V1500zm1840 920c0-5-4-10-10-10-5 0-10 5-10 10 0 6 5 10 10 10 6 0 10-4 10-10zm-772-138 3-43-43 3-43 3-3 28c-2 16-1 34 1 41l5 12 38-1h39l3-43zm732 18v-30h-70v60h70v-30zm160 0v-30h-60v60h60v-30zm-537-65c26-3 73-15 104-26 71-24 70-24 77 8l7 26 44-49c24-27 44-56 45-64v-14l51 49c29 28 48 44 44 36-5-8-16-51-25-97l-16-82 23-58 22-59v-42l1-43-17-1c-10-1-20-1-23-1s-6-8-6-19v-19l13 4 13 5-3-12-2-12 11 2 12 2 5-24 4-25h-8c-5 0-9-9-9-19 0-11-4-22-9-26l-10-5-5 9c-3 5-22 12-42 15l-36 7 8 17c4 9 9 47 12 84l4 67-17 56-18 56-44 49-44 49-57 28-57 28h-150l-56-26-55-26-39-39-38-39-25-54-25-55v-71l1-70 23-50 24-50 41-42c23-23 61-51 85-63l42-22 66-6 66-7-53-13-52-14-11-19-10-19 6-10 6-10h-10c-6 0-13-11-17-24l-6-25-30 35c-17 19-57 53-89 75-32 23-65 52-74 65-20 32-28 30-47-8l-15-32-6 78-7 77-21 70-21 70 11 46c14 53 10 60-24 45-32-15-31-9 3 29 15 17 43 55 63 85l37 55-14 52c-8 29-14 53-14 54s18-9 41-21l41-24 56 35c31 18 76 39 100 45l42 10v30l28-6c15-2 49-8 75-11zm282-5 6-10h-10c-6 0-11 5-11 10 0 6 2 10 4 10 3 0 8-4 11-10zm-741-80-10-10v40l10-10 10-10-10-10zm1146-125c0-3-21-69-46-147l-47-142-22 27-23 26-6-7-7-6 5 14c2 8 21 66 41 128l37 112h34c19 0 34-2 34-5zm-675-37-6 12h8c4-1 32-14 62-29l54-28-34-5c-19-3-67-6-108-7l-73-2 33 46 33 46 19-23c10-13 16-17 12-10zm-80-22c-15-20-31-36-35-36-3 0-7-6-7-13s-8-25-18-40l-18-28-9 13-10 13 6-17 5-18h-30l13-14c7-8 16-12 20-10 4 3 15-10 24-28s24-42 34-53c9-11 25-33 35-48l18-28-67 33-67 33 23 6 23 7-22 1c-13 1-26 0-30-1-8-4-31 60-32 90-1 12 5 40 11 62l13 39 70 39c38 21 72 37 74 36 1-2-9-19-24-38zm-80 24c-3-5-10-10-16-10-5 0-9 5-9 10 0 6 7 10 16 10h15l-6-10zm-427-32c7-7 12-21 12-33v-21l-75-74-75-75 76-76 76-76-4-29-3-29h-53l-101 98c-56 53-101 103-101 109 0 7 46 59 102 115l103 103h15c9 0 21-5 28-12zm1472-85 100-97v-37l-57-60-58-59-11 4c-6 2-37-2-69-9l-58-14 63 64c35 35 66 62 70 60 3-2 7 6 8 18l1 22-76 77-77 77 12 26 12 25h41l99-97zm-739 12 20-46-10-27-9-27-1 19-1 18-20-5-20-5v9c0 5 10 10 23 10l22 2-23 4-24 5 6 15c3 8 9 27 12 41l5 27-18-38-18-38-19 31-18 32 13 9c8 5 24 9 37 9h23l20-45zm-222 28-26-4-21-38-21-38 15-22c9-12 14-24 11-27-2-3-12 7-21 21l-17 26 26 45 26 44 27-1 27-2-26-4zm115-2 5-8-24 5c-14 2-25 6-25 8 0 8 39 4 44-5zm-804-21c0-5-4-10-10-10-5 0-10 5-10 10 0 6 5 10 10 10 6 0 10-4 10-10zm970-40c0-5-5-10-11-10h-10l6 10c3 6 8 10 11 10 2 0 4-4 4-10zm-69-93-12-12 7 18c3 10 9 15 12 12s0-11-7-18zm383-21c-3-15-8-25-11-23-2 3-1 17 3 31 3 15 8 25 11 23 2-3 1-17-3-31zm-994-10c0-3-4-8-10-11l-10-6v10c0 6 5 11 10 11 6 0 10-2 10-4zm1304-145c-15-17-29-29-32-26-2 2 8 18 24 34 37 39 44 32 8-8zm-1534-31c0-5-2-10-4-10-3 0-8 5-11 10l-6 10h10c6 0 11-4 11-10zm1320-328c0-13-4-32-10-42l-10-18-87 90c-49 49-89 90-90 92-2 1 4 3 12 3s12-3 10-7c-2-3 23-16 57-28l61-21-63 64-64 65-6-10-6-10-17 37-16 37 114-114 115-115v-23zM990 1441c0-5-9-12-20-16l-19-6-21 11c-29 16-25 20 20 20h40v-9zm433-18c-13-2-33-2-45 0l-23 4h90l-22-4zm-433-20v-13h-80v27l40-1 40-1v-12zm155-32v-24l-17-11-18-11-17 19-18 18 22-13 23-13 11 11 12 12-7 16-6 17-25-4-24-5 5 9 6 9 26-3 27-3v-24zm725 4c0-8-2-15-4-15s-6 7-10 15l-5 15h9c6 0 10-7 10-15zm-12-451 22-15v-16c0-21-29-53-47-53-15 0-53 35-53 50 0 12 37 50 48 50 4 0 18-7 30-16zm-998-78v-34l-12 1c-7 0-37-1-65-1l-53-2V490h-80v325l-32 1c-18 1-48 2-65 2l-33 2v60h340v-34zm802-13 3-38 38-3 37-3v-59h-80l-1-77c-1-43-4-66-6-52l-4 25-29-4-28-4 4-41 4-40 17-21 17-21-24 23-25 22-1 93-1 92-21 3-22 3v58l23 3 22 3 2 30c0 17 2 33 2 38 1 4 16 7 35 7h35l3-37zm-588-48c17-8 38-25 46-37l14-23 4-117 4-118h-71l-6 11-7 10-16-6-16-6 20 22 19 21 3-21 3-21h59v122l-20 5c-11 3-20 10-20 17v11l-10-15c-5-8-10-26-10-39v-24l-17-19c-9-10-23-18-32-18l-16 1 20 11c25 14 35 28 35 51v17h-96l-12-12c-7-7-12-20-12-30v-17l18-10 17-10-11-1c-6 0-17 7-24 15l-12 15 4 25 5 25h-18c-11 0-22 1-26 3-4 1-10-11-14-26l-8-29 9-23 9-24 28-15c15-8 23-15 17-16-6 0-23 9-37 20l-25 20-6 26-7 27 11 26c6 15 20 33 33 40l22 14 67 5 68 5v11c0 7-6 20-13 30l-13 18-50-4c-27-3-56-8-65-12l-15-7-13 27c-6 15-9 29-6 33 14 14 73 30 113 30l44 1 32-15zm318-1 31-16 6 10c3 5 21 11 39 14l32 5-1-116-2-116-7 35c-4 19-8 31-9 27l-1-8-19 11-20 10-6-20c-3-11-18-29-32-40l-26-20h-64l-25 20c-14 10-40 22-57 25l-32 5 12-22c6-13 21-34 33-47l21-24-21 13c-12 8-30 27-40 44l-18 31v92l20 34 20 34 34 17 35 18h66l31-16zm751 5c28-14 67-50 67-60 0-5-13-15-29-23l-29-15-17 19-18 20h-68l-24-25-25-24v-68l21-29 21-29-31 32-30 32-25 7-26 6 12-33c6-19 22-47 37-63l26-29-22 12-21 11-21 43c-32 66-25 125 22 176 43 46 130 66 180 40zm307 2 25-7 3-19c1-11-1-25-6-32l-7-11-47 10-48 11-25-11-25-12v-29l38-10c20-5 49-12 63-15 15-3 36-14 47-23l21-18 6-30 5-30-14 31c-8 17-22 36-30 43l-15 13-30-13-29-13 21-11 22-11 3-19 4-19-18-13-18-13-40 1-41 2 30 4c17 2 40 6 53 8l22 5v38l-14 5c-7 3-34 9-60 12l-46 7-25 20-25 19v35c0 20 5 44 11 55l11 21 31 13 32 14h45c25-1 56-4 70-8zm-580-151V490h-80v300h80V640zm321-60c10-6 19-15 19-20 0-11-51-60-63-60-4 0 7 13 25 29l32 28-23 12-22 12-17-13-17-13 14 18c16 20 25 21 52 7zm119-27c3-3-7-2-21 2l-26 6-7-17c-4-9-5-18-4-19 2-1 12-7 23-13s15-12 9-12c-5 0-18 6-28 13l-17 13 12 26 12 27 21-11c12-6 23-13 26-15zm-599 2 21 7 9-13c5-8 9-18 9-24-1-5-5-2-11 8l-10 17-23-6-22-5-15 18-14 18 17-13 17-14 22 7zm-301-25c-36-28-46-24-13 4 15 13 30 22 33 19 3-2-6-13-20-23zm667 24c-3-3-12-4-19-1l-13 5 19 1c11 1 17-2 13-5zm40 0c-3-3-12-4-19-1l-13 5 19 1c11 1 17-2 13-5zm353-29c-13-14-27-25-31-25s4 13 19 28 29 26 31 25c3-2-6-14-19-28zm-1122-22c-10-2-26-2-35 0l-18 5h70l-17-5zm149-25-5-13-1 19c-1 11 2 17 5 13 3-3 4-12 1-19zm836 15c-7-2-19-2-25 0l-13 5h50l-12-5zm-1034-54 26-7-20-1c-11 0-31 6-45 13l-24 14-14-17-13-16 11 23 11 22 21-11c12-7 33-15 47-20zm102 11-23-20-22 1-21 1 32 9c18 5 35 14 38 19 3 6 9 10 13 10 4-1-4-10-17-20zm80-13-12-12 7 18c3 10 9 15 12 12s0-11-7-18zm-118-64c-13-2-35-2-50 0l-28 4h100l-22-4zm-333 1927c0-5 5-10 10-10 6 0 10 5 10 10 0 6-4 10-10 10-5 0-10-4-10-10zm-30-30c0-5 5-10 10-10 6 0 10 5 10 10 0 6-4 10-10 10-5 0-10-4-10-10zm754 39-6-11 9-9 10-10 12 14 12 15-15 5-15 6-7-10zm161 1c-8-14 3-30 21-30h14v40h-14c-8 0-18-4-21-10zm-672-795 7-16-8 5c-4 2-14 1-22-4l-15-9 10-9 10-9 38 4 37 5v9c0 5-14 16-31 25l-32 16 6-17zm25 418c7-3 16-2 19 1 4 3-2 6-13 5l-19-1 13-5zm967-273-29-30 25 1c13 0 33 4 44 9l20 8-18 7-18 8 5 13c8 20 3 18-29-16zM666 614c-3-9-6-38-6-65v-49h60v130h-48l-6-16zm619 91-25-24v-58l25-27 24-26h69l26 31c30 35 32 49 11 88-16 32-33 41-76 41h-30l-24-25zm521-109c-3-16-6-44-6-62v-34h60v128l-24-2-24-1-6-29z"/></g><g fill="#072138" transform="matrix(.1 0 0 -.1 0 300)"><path d="M0 1500V0h3000v3000H0V1500zm1850 920c0-5-7-10-15-10s-15 5-15 10c0 6 7 10 15 10s15-4 15-10zm-450-20c0-5-7-10-15-10s-15 5-15 10c0 6 7 10 15 10s15-4 15-10zm405-100v-35l-37-3-38-3v82l38-3 37-3v-35zm160 0v-35h-70l-3 23c-2 13-1 30 2 38l6 15 32-3 33-3v-35zm-897-18 3-43-43 3-43 3-3 28c-2 16-1 35 2 43l6 15 37-3 38-3 3-43zm427-12 6-10h-10c-6 0-11 5-11 10 0 6 2 10 4 10 3 0 8-4 11-10zm-195-20c0-5-4-10-10-10-5 0-10 5-10 10 0 6 5 10 10 10 6 0 10-4 10-10zm353-50 22-35 5 34 5 34 13 5 12 4v-10c0-6-5-12-11-14l-11-4 7-27 7-27h47l26 33 26 32-7-30c-3-16-10-45-15-64-10-41-11-38 25-45 41-7 45-16 7-16h-33l6-24 6-24-12-4-13-5 20-59 19-59 2-79 2-80 18-7 19-7-24-3-24-4-5-13-4-14 21 11 21 12v-8c0-5-10-13-22-18l-22-10-29-50-29-50 14-25c7-14 21-26 30-28s58-46 109-98l93-94 9 12 9 13-5-16-5-17 30-28c16-16 34-39 39-52l9-23-14-34-15-34-24-6c-14-4-34-5-46-3l-20 3-136 134c-74 74-135 140-135 146s-11 22-25 35l-24 23-63-29-63-29h-195l-5-13c-3-8-3-18 1-23 13-22-9-6-37 26-17 19-59 55-94 80s-71 55-79 66l-14 21-23-40-24-39-1 76-1 76-23 73-22 73 9 50 10 50-8 5c-5 3-18 0-29-6-26-14-26-5 1 23 11 12 38 48 60 81l39 58v22c-1 11-7 38-14 59-8 21-11 37-7 35 3-2 22-12 43-22l36-19 17 7 16 6-7 11-7 12 12-7 11-7 36 22c19 12 54 27 77 34l42 13-2 11-3 11h28c42 0 173-27 215-45l37-15 9 22 9 23-9 3c-5 2-9 8-9 13v9l21-12c11-7 30-29 42-48zm227-10-14-9-13 11-13 11 12 14 11 14 16-16 16-16-15-9zm-916-40-10-10v40l10-10 10-10-10-10zm906-70c0-5-2-10-4-10-3 0-8 5-11 10l-6 10h10c6 0 11-4 11-10zm169-287c-44-131-83-244-88-251l-8-13-35 3-35 3 78 233c43 129 80 240 83 248l5 14h80l-80-237zM862 1945l12-26-82-82-82-82 71-70c39-39 75-78 80-87l10-18-11-20-11-20h-45l-102 99-102 99v30l103 101 102 101h45l12-25zm1457-69 94-94 13 5 14 5v-23l-10 6-10 6v-46l-97-97-98-98h-20c-27 0-45 18-45 45v22l76 73 76 72-76 77-76 76v21c0 26 18 44 45 44h20l94-94zm-479 74c0-5-4-10-10-10-5 0-10 5-10 10 0 6 5 10 10 10 6 0 10-4 10-10zm-1170-60c0-5-4-10-10-10-5 0-10 5-10 10 0 6 5 10 10 10 6 0 10-4 10-10zm290-164c0-3-4-8-10-11l-10-6v10c0 6 5 11 10 11 6 0 10-2 10-4zm1240-66c0-5-4-10-10-10-5 0-10 5-10 10 0 6 5 10 10 10 6 0 10-4 10-10zM730 1550c0-5-4-10-10-10-5 0-10 5-10 10 0 6 5 10 10 10 6 0 10-4 10-10zm1370-70c0-5-2-10-4-10-3 0-8 5-11 10l-6 10h10c6 0 11-4 11-10zm-1106-52c3-13 6-26 6-30v-8h-90v40l25-12 26-11 11 11 11 11-19-5-19-5-20 15-20 15 41 1h42l6-22zm156-57c0-10-7-24-15-31l-14-12-21 7c-11 3-20 11-20 16v9l20-12 20-12 11 11 12 12-6 15-6 16h-41v-23l-7 7-8 8 19 13 19 14 18-10 19-10v-18zm320 35c0-3-4-8-10-11l-10-6v10c0 6 5 11 10 11 6 0 10-2 10-4zm676-70 2-16-5 15c-2 8-9 15-15 15h-10l7-17 6-18-12 12-11 11 7 12c10 15 30 7 31-14zm-568-19 3-17-18 1-18 1 13 5c6 2 12 9 12 14v10l-10-6-10-6v23l13-4c6-3 13-12 15-21zm-150-62 17 6-12-12-11-11-11 6c-6 4-10 15-10 24l1 17 5-18 5-18 16 6zm440-327c7-7 12-24 12-38 0-32-17-50-46-50h-23l-15 16c-9 8-16 24-16 34s7 26 16 34l15 16h23c12 0 27-5 34-12zm-998-78v-40H740V490h-90l-1 153c-1 83-1 155 0 160l1 7H520v80h350v-40zm800-15v-35h70v-68l-35-6-35-7V558l35 4 34 4 11-30 10-30-12-8c-7-4-28-11-46-14l-32-6-31 12c-16 7-36 22-44 34l-15 20v186h-40v70h40v70h90v-35zm-580-54c14-10 31-29 37-42l13-24V490h-80v18l-39-15-40-15-36 6-37 7-24 26-24 26v66l24 27 23 28 69 4c38 2 73 8 78 12l8 8-21 21-21 21h-25c-14 0-41-6-59-14l-34-14-11 24c-15 35-14 42 12 56 54 29 144 29 187-1zm313 4 17-7v22h91l-3-162-3-163-15-30-15-29-34-23-34-23h-127l-40 16-40 16v17c0 9 7 24 15 35l14 19 41-17c48-19 83-20 113-5 28 15 37 28 37 57v23l-22-15-22-16h-93l-34 23-34 22-17 35-18 35v77l21 37c23 41 49 61 94 71l30 6 30-7c17-4 38-10 48-14zm771-9c14-9 30-25 36-36l11-20-36-17-35-17-14 19-14 19h-72l-21-21-21-21v-74l23-24 22-24h61l20 19 21 19 33-13c17-8 32-18 32-23 0-6-15-23-34-40l-34-30-41-7-41-7-37 12c-44 14-79 43-99 82l-14 27v96l20 32c23 38 59 63 103 72l32 7 37-7c20-3 48-14 62-23zm-299-131V495l-42-3-43-3v312l43-3 42-3V645zm605 139 10-10-11-32-11-31-24 10c-14 5-42 9-63 9h-39l-12-15-12-15 27-10c14-5 33-10 40-10 8 0 33-7 55-16l41-16 9-19c6-10 10-31 10-47v-29l-21-26-20-27-41-11-42-11-45 7c-25 4-58 13-73 21l-27 14 11 28c7 15 13 28 14 30s25-4 52-13l51-17 28 9 28 10v26l-25 8c-14 4-42 10-64 14l-38 6-24 24-24 24v25c0 37 18 70 48 89l27 18 77-3 77-3 11-11zm-724 1527-6-10 9-5 10-6 5 9 6 10-9 5-10 6-5-9zm164-11c0-5 7-10 15-10s15 5 15 10c0 6-7 10-15 10s-15-4-15-10zm-890 0c0-5 5-10 10-10 6 0 10 5 10 10 0 6-4 10-10 10-5 0-10-4-10-10zm-30-30c0-5 5-10 10-10 6 0 10 5 10 10 0 6-4 10-10 10-5 0-10-4-10-10zm280-157-45-16-56-56-56-56-18-55-18-55v-57l1-57 25-55 26-55 46-45 46-45 57-21 57-22 70 4 70 4 49 24c27 14 66 42 88 63l40 39 20 45 20 45 5 54 6 55-18 60-19 60-53 55-54 55-11-7-11-7 7 12 7 11-43 20-43 20-75-1-75-1-45-15zm50-64c0-5-7-9-15-9-15 0-20 12-9 23 8 8 24-1 24-14zm260-19c0-5-4-10-10-10-5 0-10 5-10 10 0 6 5 10 10 10 6 0 10-4 10-10zm-98-52c31-16 62-36 69-44 6-8 19-14 28-14h16l-13-8-12-8 11-33 11-32-12-44-12-44-22-20c-11-11-51-34-88-51l-66-31-73 36c-86 44-90 47-112 105l-17 45 19 50 18 50 79 42 79 42 20-6c11-3 46-19 77-35zm-214 14 4-12h-32v32l12-4c6-2 14-10 16-16zm272-12c0-5-2-10-4-10-3 0-8 5-11 10l-6 10h10c6 0 11-4 11-10zm90-130c0-5-4-10-10-10-5 0-10 5-10 10 0 6 5 10 10 10 6 0 10-4 10-10zm-30-140c0-5-4-10-10-10-5 0-10 5-10 10 0 6 5 10 10 10 6 0 10-4 10-10zm-50-40c0-5-4-10-10-10-5 0-10 5-10 10 0 6 5 10 10 10 6 0 10-4 10-10zm-247 245v-15l14 11c7 6 13 13 13 15s-6 4-13 4h-14v-15zm155 8c7-3 16-2 19 1 4 3-2 6-13 5l-19-1 13-5zm-147-42c-26-36-26-48-1-88l20-33h125l21 38 22 37-22 37-21 38h-124l-20-29zm-45-30-17-19 9-6 9-5 11 24c14 30 11 31-12 6zm239-15v-24l13 10 12 11-11 13c-15 18-14 18-14-10zm-31-71-6-15h-144l-13 13-13 12 11-22c6-12 16-25 23-29l11-7-7 12-8 12 63-1c88-2 86-2 92 20 6 23-1 27-9 5zm372 446-6-10 9-5 10-6 5 9 6 10-9 5-10 6-5-9zM968 613c-9-2-19-11-22-20l-6-16 11-13 11-14h58l21 21 20 20-4 12-4 12-34 2c-19 0-41-1-51-4zm328 96-26-20v-76l18-15c9-9 27-19 39-22l22-7 29 15c33 17 42 34 42 76v29l-26 20-27 21h-44l-27-21z"/></g><g fill="#01111d" transform="matrix(.1 0 0 -.1 0 300)"><path d="M0 1500V0h3000v3000H0V1500zm1353 1088-68-69 1-77c0-42 2-89 4-104l4-27 14 8c7 4 26 5 43 3l29-4 1-17v-16l9 23 9 22h41v-10c0-5-6-10-12-10h-13l14-9 14-9 14 5 15 6-12 7-12 7 22 6 21 5 6-14 5-15 13 18 13 18 8-8 7-7h-11c-7 0-12-4-12-10v-10h49l5-18 6-18 31-11 31-12-6 14-5 14 10 7 10 6-11 13-11 13 26 6 25 6v26l33-1c17-1 46-2 64-3l32-2 3-27 3-26 30-4c41-6 45-13 6-13h-32l5-9 5-8-25-12-26-12 25-19c14-11 28-20 31-20 9 0 7 28-1 33-5 2-2 2 6 0l13-3-5 13-5 14h14c8 0 14-4 14-8 0-3 9-9 20-12l19-5 4 12 4 11 22-12c25-16 34-16 26-3l-6 10h10c14 0 14-23 0-37l-12-12 21 2 21 1-5 8c-3 4-1 8 4 8 6 0 12-7 16-15 3-8 9-14 13-13 4 2 9-1 10-7 0-5-3-9-8-7-5 1-14 3-21 5l-12 2-3-20-3-20 9 20 10 20v-14l1-14 7 6 6 7 15-13 16-12-8 13-7 12h32l5-14 5-14 17 2c9 2 22-3 29-10s18-14 25-17l13-5-20-15-20-15 27 5 26 5 11-20 11-20-15-6c-8-3-15-11-14-18l1-13 5 13c4 11 33 18 33 8 0-14-13-35-20-31l-8 5-17-28-18-27 20 18 20 17h42l-5 15-6 15h32l10-26c13-33 13-37-2-28l-13 8 13-16 13-16 19 5 20 5v-11c0-6-5-11-12-11h-11l17-19c10-11 28-22 41-25l24-6-5-13-5-13 29-27 29-28 13 3 13 3 4-12 5-13h-22v-33l-102-103-102-104h-20c-11 0-28 8-39 18l-20 17 12-22 12-23h59l18 18 19 19 21-2 22-2v9c0 4-4 8-10 8-5 0-10 5-10 10 0 6 6 10 14 10s17 6 19 13l5 12 2-20 1-20 9 23 10 22 27-5c15-2 29-9 31-15l4-10h164l69-70 69-69 50-4 51-3-59-2-59-2-65 65-66 65h-149l5-45 6-45h-14c-8 0-14-4-14-10v-9l14 5 14 5 8-13c11-18 13-78 2-84l-8-5v10c0 6-4 11-9 11h-10l14-26 13-27-9-24c-11-30-11-36 0-29l9 6-5-20c-3-11-8-20-12-20h-7l4-36 5-37-13 8-13 8 17-29 17-29 126-2 126-2 61 55 61 54 25-1 25-2-24-4-24-5-53-54-54-54-67-1c-38 0-97-3-133-6l-64-5-19-13-19-13-14 5-14 5v-42h-35l15-10c16-10 15-12-15-28l-20-11 13-1h12l-19-38c-10-20-29-46-41-57l-21-19-8 12-8 13-27-7-28-7-5-14-5-14-14 12-14 12 7-19 7-19-15 11-14 11-42 2-42 1-5-9-6-9 38 2c20 2 42 0 47-3 6-3 19-7 29-8 10-2 29-15 40-28 27-31 32-31 79 1l38 25 38 1c21 0 56-3 79-7l41-7 27-24 26-25-6-37-6-37-10-3c-15-5-12-33 6-53l16-18 5-43 5-43-24-35-23-35-35-17-35-18h-60l-60 1-35 18-35 19-47-19c-86-34-141-28-216 22-24 16-45 29-46 29-2 0-7-11-10-24l-6-24-32-11c-18-5-62-10-98-11-36 0-79-1-96-1h-32l3-17 2-17-4 13c-3 6-9 12-14 12h-10l6 9 6 10-20 10c-11 6-27 18-36 27l-16 17-8-9c-4-5-15-30-25-55l-16-46-28-25c-35-33-82-48-150-48h-56l-42 21-42 20-10 27c-5 15-8 35-6 46l3 18-52-6c-29-4-84-7-124-7l-72-1-36 22c-20 12-43 32-51 45l-15 22-1 35-1 35 18 30 18 30-7 35c-3 19-12 43-19 52l-14 18-21-6-22-7-1-82c0-83-3-115-14-174l-6-32-35-10-36-10-22 9c-12 4-28 16-36 25l-14 17-4 121c-2 67-5 127-7 133l-3 11-47 5-46 6-14 18-14 19-1 41v41l21 19 21 19 92 2c50 1 101 3 114 3h22v22l-19-5-19-4-21 48c-13 27-23 64-24 83l-2 34-7-5-8-4v25c0 14-4 27-9 31l-10 5 4 23c3 12 12 27 20 33s15 15 15 19v7l-15-6c-20-7-19 4 3 20l17 13-25-5-25-4 13 6c6 3 12 10 12 15v10l-8-5c-5-3-25 4-45 14l-37 20H326l-87 85-86 85h12c8 0 15-3 17-8 2-4 38-40 80-80l77-72 120 1 120 1 11 13 11 13 2 105 2 105 9-5 9-6-5 15-6 15 15 31 15 32h30l11-30 11-30 20-6 19-6-14-9-14-9h35v-39l22-11 23-11-19 15-20 16h16c9 0 20-4 23-10l6-10h57l12 14 11 15-30-12-31-11-105 104-105 105v43l14 12 15 11-6 16-6 16 15-5 16-6 10 10 11 11-15 14c-8 8-14 23-14 34v19h29l10-19 10-18-7-9c-4-5 8 4 26 21l33 30-11 3c-5 2-10 9-10 16v13l23-4 23-4 17 19 18 19-22-1-22-1-5 14-5 14 37-7 36-7v9c0 4-6 14-12 20l-13 13 23 5 22 6v14c0 8 5 14 10 14 6 0 18 13 28 28l17 29 20-4c11-2 26-5 33-5 6-1 12-5 12-10 0-18 21-7 32 17l11 24 8-5 9-5v22l12-7 11-7-7 11-7 12 6 10 7 11 14-12 15-12-3 9c-4 11 38 54 53 54h11l-6-15-5-15h9c6 0 10 5 10 11v11l14-5 15-6 40 38c23 21 41 44 41 50s4 11 9 11h9l1 108 2 107 69 70 70 70 1 25 2 25 4-29 5-29-69-69zm265 48 22-26v-203l18-13 17-13-11-18-11-18-21-3-21-3-10 20-11 20 15 15 15 15v205l-42 45-43 44 30-20c17-12 40-33 53-47zm-511-128 15-17-4-18-3-18h-60l-3 16-3 17 16 15 15 16 2 43 1 43 4-40 4-40 16-17zm-144-100 12-8-30 1-30 1 13 5 12 5 2 36 1 37 4-35 5-35 11-7zm887 12v-20h-40v13c0 8 3 17 7 20 3 4 12 7 20 7h13v-20zm-452-17c-4-22-22-20-26 1l-3 16h32l-3-17zm552 7c0-5-7-10-15-10s-15 5-15 10c0 6 7 10 15 10s15-4 15-10zm-1010-30c0-5-7-10-15-10s-15 5-15 10c0 6 7 10 15 10s15-4 15-10zm25-20c-3-5-14-10-23-9h-17l20 9c27 11 27 11 20 0zm1005-60v-40h-60v-10c0-5-4-10-10-10h-10v100h80v-40zm-898 25c2-3 2-24-1-47l-6-43-34-3-34-3-10 10c-12 12-17 48-10 74l4 17h43c23 0 45-2 48-5zm521-15 5-20h-9c-5 0-9 5-9 10 0 6-7 10-16 10h-15l6 10c3 6 12 10 19 10h14l5-20zm-403-56v-15l-20 11-21 11 6 9 6 9 14-6c8-3 15-12 15-19zm-180-58v-15l-19-6-19-6-5-19-5-20h-43l-5 15-6 15 12 15 13 15 18-5 19-6 6 15c3 9 12 16 20 16h14v-14zm-500-391 12-14-4-18-3-18-23-3-24-4-17 16-17 15-104 4-105 3 106 2 107 2 12 15c16 19 44 19 60 0zm-297-22c-7-2-21-2-30 0l-18 5h60l-12-5zm2361-29 16-15 70-2 70-2v-15h-148l-6-15-5-15h-19c-22 0-42 19-42 40 0 19 19 40 36 40 7 0 20-7 28-16zm-1944-64c0-5-7-10-15-10s-15 5-15 10c0 6 7 10 15 10s15-4 15-10zm1837-292-5-13-1 19c-1 11 2 17 5 13 3-3 4-12 1-19zm-2322-56c-7-7-45 29-45 41v10l25-23c14-13 23-26 20-28zm2538 23 15-14 108-4 109-3-113-2-113-2-5-15-6-15h-57l-6 20-7 21 12 14c16 19 45 19 63 0zm-2458-95 59-60h234l12 15c7 8 21 15 31 15h18l11-19 10-20-6-15c-3-8-15-18-26-22l-19-6-17 15-17 15-119 5-119 5-66 66c-36 36-61 66-56 66 6 0 37-27 70-60zm1401-874 24 6v-11c0-6-4-11-10-11h-10V248c0-72-2-129-5-127-2 3-5 60-6 127l-2 122-13 11c-8 6-14 17-13 23l1 11 5-12 5-13 24 6zm148-58 10-17-13-25-14-24-1-66c-2-92-13-91-15 1l-2 78-10 10c-5 5-9 19-9 31v22l13 5c17 8 29 3 41-15zm-589-18 6-10h-42l6 10c3 6 10 10 15 10s12-4 15-10zm13-35-14-10-2-79c-3-105-12-112-12-10v80l-12 13-13 14 13-7 12-7v20l21-2 20-1-13-11zm795-10 6-14-11-7-11-7 7 11 6 11-17 10-18 10 16 1h17l5-15zm-512 2032-1-19-20-5c-22-6-27-22-7-24 6-1-1-5-18-9l-30-8 35-1c19-1 52-8 73-15l37-14v8c0 8-35 22-60 24l-15 1-3 18-3 17h15c8 0 22-7 30-16l16-15v31h-27l-11 23-11 22v-18zm267-54c6-2 18-2 25 0l12 5h-50l13-5zm177-33c3-5 8-10 11-10 2 0 4 5 4 10 0 6-5 10-11 10h-10l6-10zm-635-109-45-19 2-11 3-10-13 5-13 5-20-22c-10-13-14-20-8-16l11 7 18-20 18-20h39l-5-20-5-20h8c15 0 40 12 40 20 0 4-13 24-30 45l-30 37 6 9c3 5 16 9 30 9h24l1 13v12l9-20 9-20v14l1 13 14-11c8-7 17-25 21-40l6-28h48l-3 27-3 28 26 6c14 3 33 10 41 15l14 10-7 7c-4 4-42 9-84 11l-78 3-45-19zm115-21 6-10h-10c-6 0-11 5-11 10 0 6 2 10 4 10 3 0 8-4 11-10zm603 19c-20-11-24-29-7-29h10l-7 12-7 11 17-6 17-7-6 9-5 9 12 5 13 5-10 1c-5 0-18-4-27-10zm60 4c7-3 16-2 19 1 4 3-2 6-13 5l-19-1 13-5zm-1075-20-12-4 6-17c3-9 12-24 20-33l14-17-17-16c-9-9-14-19-11-22s13 6 23 21l17 27-10 6c-6 4-13 19-15 33l-3 26-12-4zm915 0c6-2 18-2 25 0l12 5h-50l13-5zm47-3c3-5 8-10 11-10 2 0 4 5 4 10 0 6-5 10-11 10h-10l6-10zm60-21c-4-6-5-12-2-15 2-3 7 2 10 11 7 17 1 20-8 4zm-113-23 2-25 17-4c9-3 22-1 29 3l12 7-26 7-26 6v22l13-10c15-13 40-11 47 3l5 10-37 3-38 3 2-25zm-1032 7c0-6 8-17 18-24l17-14-15 20c-8 11-16 22-17 24-2 2-3 0-3-6zm1247-45c-4-12-4-24-2-27 3-2 5 1 5 7v11l14-5 13-5 7 18 7 17-7-7-7-7-12 10-13 10-5-22zm-978-19-23-33 11-3c6-2 21-13 34-24 24-21 34-25 24-9l-6 10h10c6 0 11 7 11 15s-5 15-11 15h-10l7-12 7-11-10 6-10 6-1 32c-1 44-6 45-33 8zm737 24c6-4 14-15 17-23l7-15-3 19-2 19-15 4-15 5 11-9zm-356-13c-8-5-18-6-22-4-4 3-8 1-8-4 0-6 7-13 16-16l15-6 15 14 14 15-8 5c-4 2-14 1-22-4zm-666-36c9-8 17-25 17-37l1-22 5 17 4 17-11 20c-6 12-15 21-21 21h-10l15-16zm101-24c-4-6-10-8-14-6l-8 5v-27l13 5c7 2 15 11 18 19 6 16 0 19-9 4zm842-10c3-11 7-20 9-20s4 9 4 20-4 20-9 20h-9l5-20zm289-5c-3-9-6-22-5-28 0-7 5-1 10 12s8 26 5 28c-2 2-6-3-10-12zm-990-46c-3-18-6-48-5-68v-36l10 25c14 33 16 35 34 20l16-13 12 12 12 12-27 23c-16 12-28 27-28 33 0 7-4 14-9 17l-9 6-6-31zm64-49c0-5-4-10-10-10-5 0-10 5-10 10 0 6 5 10 10 10 6 0 10-4 10-10zm-368-3-72-73 55-54 55-54 12 13 13 14-17-6-16-6-16 18c-9 10-14 21-11 24 3 4 2 5-2 2-3-3-15 2-25 12l-18 16v48l12-7 11-7-6 10-7 11 13 10c6 5 21 12 32 14l20 4-2 12-3 12h32l-6 15-5 15 11-3 10-2 3 18c2 9 2 17 1 17s-34-33-74-73zm158 63-15-10h27l-5-13c-5-14 9-45 16-37 2 3 7 20 10 38l7 32h-13c-6 0-19-5-27-10zm405 3c11-3 29-12 39-22l19-16-6 17-6 17 17 4c9 3-5 5-33 5h-50l20-5zm335-30v-27l-12 12c-16 16-28 15-28-2v-14l25-4 25-5v33c0 19-2 34-5 34s-5-12-5-27zm377-4c-4-13-4-25-2-28 3-2 5 1 5 8v12l10-6 10-6v8c0 4-4 14-9 21l-8 14-6-23zm96 6c-3-9-3-18-1-21 3-3 8 4 11 16 6 23-1 27-10 5zm-858-16c-9-14-2-20 14-10l13 9-10 6-11 6-6-11zm175-3c0-8 5-18 10-21l10-6v15c0 8-4 18-10 21l-10 6v-15zm726-9c11-14 27-30 38-37l18-11-18 24c-11 14-27 30-38 37l-18 11 18-24zm-615-58-11-32 20-19 19-18h43l-6-27-6-28 22 42 22 43-7 7c-4 4-25 7-47 7-41 1-47 5-30 22l9 9-8 14-8 13-12-33zm64-38 5-10-10-6-10-6v15c0 18 6 21 15 7zm156 36-1-38 15-5 15-6v-38h22l-6 15-5 15h12l12 1-25 13-25 14-6 34-6 33-2-38zm-613-1-5-26h27v13c0 6-4 18-9 25l-8 14-5-26zm833-22 1-19 5 13c3 7 2 16-1 19-3 4-6-2-5-13zm164 6-7-11 29 7c38 9 42 14 10 14h-26l-6-10zm85 1v-12l-9 5-9 6 5-21 6-21 15 16 16 16-12 12-12 12v-13zm-1493-16-6-14 7-5 8-5 1 20c2 23-3 25-10 4zm176-21-22-22 15-6c31-12 54 13 36 40l-7 11-22-23zm207 6c0-5 5-10 11-10h10l-6 10c-3 6-8 10-11 10-2 0-4-4-4-10zm-60-5c0-5 5-17 10-25l10-15v10c0 6-5 17-10 25l-10 15v-10zm134-26-6-11 15-15 15-15 6 11 7 11h-10c-6 0-11 5-11 11v11l18-7c38-15 46-16 22-1-30 18-46 20-56 5zm247-13-24-13 10-6 9-6 30 20 29 19h-15c-8-1-26-7-39-14zm-284-25-5-21 8-5c11-7 20 19 10 34l-7 13-6-21zm992 6 11-11 10 10 10 10-22 1-21 2 12-12zm-839-11c0-2 7-7 16-10l15-6-6 10c-6 10-25 14-25 6zm170-6c0-5 5-10 11-10h10l-6 10c-3 6-8 10-11 10-2 0-4-4-4-10zm242-11-13-21 12-14c6-8 17-14 23-13l11 1-12 5c-18 7-16 21 3 25l15 3-13 18-13 17-13-21zm-759-29v-45l4 23c2 12 2 32 0 45l-4 22v-45zm172 0c21-24 32-25 32-5v14l-8-5c-4-2-10 0-14 6-3 5-11 10-17 10h-11l18-20zm403-7c-10-2-18-9-18-14v-10l20 11c11 6 20 13 20 15 0 3-1 4-2 4-2-1-11-3-20-6zm-718-23v-21l14 13c14 13 12 28-5 28h-9v-20zm992-37 3-28 39-3 39-3 8 8 8 8-46-4-46-3 5 26 5 26h-18l3-27zm-782 1c0-8 5-14 10-14h11l-12-21-11-21 11 6 11 7v-26l9 14 9 14 11-7 11-7v6c0 4-13 20-30 35l-30 28v-14zm195 6c11-5 25-9 30-9l10-1-15 10c-8 5-22 9-30 9h-15l20-9zm465 5c0-2 6-8 13-14l14-11v27h-14c-7 0-13-1-13-2zm530-25c0-5 5-10 11-10h10l-6 10c-3 6-8 10-11 10-2 0-4-4-4-10zm30-5c0-8 4-15 8-15 5 0 9 7 9 15s-4 15-9 15c-4 0-8-7-8-15zm-1634-14-20-8 20-5 21-5v13c0 8-1 14-1 13-1 0-10-4-20-8zm510-46 6-15h-32v-21l20 11 20 11 23-12 22-12-14 17c-8 9-22 21-32 27l-19 9 6-15zm1120-1c-8-22-8-22 15-35l21-11-6 10-6 10 7 5c5 2 3 3-4 1-18-4-24 8-12 23l11 13h-10c-5 0-13-7-16-16zm-756-24c-25-11-63-20-85-21l-40-2 33-4 33-4 49 16c28 9 52 21 55 26 4 5 5 9 3 8s-23-9-48-19zm100 2c6-13 14-21 18-18 3 4-2 14-12 24l-18 17 12-23zm-640-19v-28l9 14c5 8 7 20 4 28-8 21-13 15-13-14zm333-10c9-2 25-2 35 0l17 5h-70l18-5zm-243-44v-10l10 6c6 3 10 8 10 11 0 2-4 4-10 4-5 0-10-5-10-11zm656-49c28-30 80-85 116-122l65-67 28-7 27-7 32 17c17 9 22 14 11 10s-33-9-48-12l-28-4-127 123c-69 68-104 99-76 69zm634 46c0-2 8-10 18-17l17-14-14 18c-13 16-21 21-21 13zm-1715-47c-11-17 1-21 15-4l12 15h-10c-6 0-14-5-17-11zm86-55 1-19 5 13c3 7 2 16-1 19-3 4-6-2-5-13zm19-13v-9l20 5c11 3 20 7 20 9s-9 4-20 4-20-4-20-9zm1477-8c-10-9-9-33 1-33 4 0 8 9 8 20 0 23 0 22-9 13zm79-6c3-10 9-15 12-12s0 11-7 18l-12 12 7-18zm-1673-28 5-17-11-11-11-11 24 5 24 5 8-13 8-12v12c0 6-5 15-11 19l-11 7 13 9 14 10-16-5-17-5-12 11-13 12 6-16zm1715-6c7-3 16-2 19 1 4 3-2 6-13 5l-19-1 13-5zm-1700-50c6-2 10-8 8-12l-5-8h14c8 0 15 4 15 8 0 7-26 20-38 18-4 0-1-3 6-6zm1677-73c3-5 8-10 11-10 2 0 4 5 4 10 0 6-5 10-11 10h-10l6-10zm-69-68-5-9h28l-5 9c-3 4-7 8-9 8s-6-4-9-8zM776 968l5-7 14 6c21 7 19 12-4 10l-20-1 5-8zm1377-55c9-2 23-2 30 0l12 5h-60l18-5zm-216-81 6-14 6 10c3 5 15 12 26 15l20 5-31-1-32-1 5-14zm-757-3v-10l10 6c6 3 10 8 10 11 0 2-4 4-10 4-5 0-10-5-10-11zm-35-19c3-5 8-10 11-10 2 0 4 5 4 10 0 6-5 10-11 10h-10l6-10zm168-146-6-16 16-15 15-16 16 6c9 4 19 14 23 23l6 16-14 9c-8 5-22 9-32 9h-18l-6-16zm398 2-12-14 13-21c19-30 28-26 28 14v35h-9c-5 0-14-6-20-14zm339-5-10-20 6-15c3-8 13-17 21-20l16-7 32 11c17 6 42 9 56 6l24-3 11 9 12 9-5 19c-6 22-14 25-28 11l-10-9-40 14c-22 7-48 14-57 14h-17l-11-19zm-860-151c-1-3-3-13-5-24l-4-19 11 11 10 10-5 14c-3 7-6 11-7 8zM930 2160c0-5 5-10 10-10 6 0 10 5 10 10 0 6-4 10-10 10-5 0-10-4-10-10zm1600-424c0-2 7-7 16-10l15-6-6 10c-6 10-25 14-25 6z"/></g></g></svg>